<?xml version="1.0" encoding="utf-8"?>
<svg width="184.58pt" height="289.84pt" viewBox="0 0 184.58 289.84" version="1.1" xmlns="http://www.w3.org/2000/svg">
  <defs>
    <clipPath id="clip1">
      <path d="M 0 0 L 184.578125 0 L 184.578125 289.839844 L 0 289.839844 Z M 0 0 "/>
    </clipPath>
  </defs>
  <g id="surface1">
    <g clip-path="url(#clip1)" clip-rule="nonzero">
      <path style="stroke: none; fill-rule: nonzero; fill-opacity: 1; fill: rgb(236, 85, 152);" d="M 118.535156 115.402344 C 122.292969 115.121094 126.601563 115.984375 128.515625 114.640625 C 128.875 113.046875 113.9375 110.226563 104.371094 116.988281 C 104.371094 116.988281 111.984375 114.433594 118.535156 115.402344 Z M 120.558594 124.292969 C 117.71875 123.898438 118.257813 121.035156 118.257813 121.035156 L 113.796875 121.824219 C 113.242188 121.921875 114.777344 123.097656 114.820313 123.136719 C 115.050781 123.304688 115.300781 123.523438 115.5625 123.773438 C 116.390625 124.539063 117.378906 125.503906 118.519531 125.488281 C 119.210938 125.476563 120.5 124.285156 120.558594 124.292969 Z M 113.847656 126.65625 C 112.640625 125.074219 110.410156 121.492188 110.6875 120.917969 C 108.367188 121.644531 101.589844 122.292969 93.140625 128.234375 L 94.441406 119.96875 C 94.441406 119.96875 114.3125 104.929688 129.539063 114.027344 C 129.445313 112.636719 129.171875 110.683594 131.859375 113.195313 C 131.585938 114.398438 129.910156 116.8125 129.910156 116.8125 C 129.910156 116.8125 132.046875 117.929688 134.648438 114.027344 C 135.855469 112.726563 139.0625 110.59375 138.617188 113.839844 C 137.621094 115.144531 136.597656 116.628906 136.597656 116.628906 C 136.597656 116.628906 136.414063 118.761719 142.914063 116.535156 C 142.738281 116.914063 139.292969 119.285156 134.183594 122.292969 C 125.359375 128.332031 112.238281 133.328125 100.382813 128.789063 C 100.660156 128.234375 101.402344 127.863281 101.402344 127.863281 C 101.402344 127.863281 111.246094 128.140625 113.847656 126.65625 Z M 166.34375 194.570313 C 164.0625 194.128906 159.402344 193.011719 154.539063 190.578125 C 151.605469 195.28125 146.445313 202.910156 145.789063 212.921875 C 145.402344 215.589844 145.386719 218.171875 145.777344 220.726563 C 148.789063 214.074219 154.082031 206.496094 162.78125 197.972656 C 163.8125 197.03125 165.027344 195.882813 166.34375 194.570313 Z M 183.863281 172.621094 C 182.351563 178.808594 178.007813 190.101563 168.914063 198.53125 C 165.5625 202.894531 152.539063 212.515625 147.5 226.734375 C 148.6875 229.523438 150.4375 232.347656 152.824219 235.265625 C 155.0625 237.386719 154.316406 237.195313 154.238281 237.53125 C 152.960938 236.652344 149.449219 234.324219 146.5 230.054688 C 145.226563 235.171875 145.039063 240.824219 146.671875 246.988281 C 147.300781 249.425781 149.597656 253.476563 148.851563 254.429688 C 145.929688 249.679688 139.316406 240.121094 143.96875 225.425781 C 142.785156 222.597656 141.984375 219.222656 141.921875 215.238281 C 137.570313 221.039063 129.6875 230.191406 118.675781 237.53125 C 121.460938 243.515625 140.960938 274.214844 142.355469 285.886719 C 142.355469 285.886719 144.585938 294.78125 140.644531 285.886719 C 139.847656 284.300781 134.453125 273.28125 127.613281 261.097656 C 118.535156 245.191406 110.914063 234.9375 105.5625 228.984375 C 103.074219 229.449219 65.925781 239.964844 65.785156 221.019531 C 67.875 222.96875 70.046875 232.515625 102.300781 227.082031 C 106.050781 226.101563 132.3125 220.332031 142.621094 207.757813 C 143.707031 202.195313 146.136719 195.726563 150.511719 188.242188 C 140.949219 181.847656 132.992188 169.519531 143.839844 146.15625 C 145.519531 141.597656 146.863281 136.472656 149.832031 131.019531 C 151.257813 127.292969 160.972656 110.3125 154.703125 90.164063 C 154.136719 88.320313 151.6875 85.242188 152.757813 85.242188 C 152.757813 85.242188 167.425781 99.355469 156.84375 132.226563 C 155.734375 136.105469 144.421875 166.476563 153.789063 182.628906 C 157.859375 175.890625 164.699219 164.433594 165.105469 152.796875 C 165.191406 150.246094 165.113281 150.273438 165.195313 148.386719 C 165.195313 148.386719 172.746094 159.308594 156.792969 186.574219 C 159.597656 189.382813 163.4375 191.394531 168.617188 192.230469 C 173.988281 186.527344 180.1875 178.660156 182.527344 170.699219 C 183.121094 168.683594 183.59375 165.84375 184.140625 165.84375 C 184.140625 165.84375 185.285156 166.8125 183.863281 172.621094 Z M 69.800781 190.0625 C 79.726563 191.726563 85.042969 187.640625 85.042969 187.640625 L 87.730469 186.476563 C 85.816406 184.796875 79.019531 185.003906 77.226563 185.261719 C 75.046875 185.898438 70.183594 186.285156 68.582031 185.898438 C 65.894531 185.515625 64.484375 189.425781 64.484375 189.425781 C 65.574219 189.296875 67.851563 189.738281 69.800781 190.0625 Z M 54.195313 192.148438 C 55.433594 193.613281 59.101563 197.949219 59.933594 198.742188 C 59.933594 198.742188 63.339844 203.457031 70.988281 202.804688 C 72.847656 202.738281 78.636719 201.648438 81.644531 203.125 C 81.71875 203.1875 81.804688 203.25 81.890625 203.316406 C 83.09375 202.867188 86.199219 201.574219 90.484375 198.742188 C 91.699219 197.621094 95.542969 193.839844 97.011719 189.488281 C 97.398438 188.078125 97.335938 186.796875 101.496094 185.066406 C 98.015625 183.367188 94.445313 181.789063 91.132813 179.761719 C 90.050781 179.097656 89.148438 178.21875 87.992188 177.65625 C 87.101563 177.214844 86.144531 176.839844 85.207031 176.519531 C 82.730469 175.675781 79.578125 175.285156 77.097656 176.355469 C 75.179688 177.191406 67.042969 180.265625 63.648438 177.320313 C 62.429688 178.214844 58.78125 180.199219 55.582031 185.449219 C 54.589844 186.269531 54.183594 186.824219 53.796875 187.101563 C 53.816406 187.710938 53.847656 188.3125 53.890625 188.917969 C 56.546875 188.738281 64.140625 188.019531 66.660156 185.710938 C 67.300781 184.941406 67.746094 184.8125 69.988281 185.390625 C 70.78125 185.59375 72.089844 185.175781 72.871094 185.023438 C 74.136719 184.777344 75.386719 184.429688 76.601563 183.980469 C 77.707031 183.570313 78.539063 183.109375 79.746094 183.171875 C 80.859375 183.230469 81.941406 183.539063 83.03125 183.75 C 85.175781 184.160156 87.28125 184.765625 89.332031 185.515625 C 92.917969 186.21875 94.261719 186.476563 94.261719 186.476563 C 94.261719 186.476563 93.566406 186.765625 92.488281 187.113281 C 89.628906 188.042969 84.089844 189.808594 81.902344 190.832031 C 79.53125 191.40625 68.132813 194.097656 62.308594 189.484375 C 61.539063 189.359375 61.539063 189.359375 61.539063 189.359375 C 61.539063 189.359375 58.554688 190.539063 53.914063 189.265625 C 53.984375 190.230469 54.078125 191.1875 54.195313 192.148438 Z M 61.425781 222.484375 C 62.402344 225.316406 64.28125 228.351563 65.417969 231.628906 C 65.09375 230.929688 62.742188 229.996094 62.0625 229.550781 C 60.761719 228.691406 60.363281 228.457031 59.144531 227.484375 C 55.6875 224.722656 51.703125 220.839844 49.015625 217.324219 C 45.234375 212.390625 43.175781 206.195313 41.511719 200.199219 C 39.308594 192.253906 38.738281 182.917969 39.375 174.734375 C 41.902344 142.417969 68.753906 120.074219 90.960938 99.636719 C 96.265625 94.753906 101.582031 89.535156 107.066406 84.871094 C 114.496094 78.554688 157.214844 39.929688 152.941406 0 C 152.941406 0 164.082031 24.699219 143.050781 57.429688 C 135.449219 68.035156 125.359375 80.273438 112.410156 94.0625 C 112.398438 94.078125 112.386719 94.097656 112.375 94.113281 C 134.75 91.03125 142.914063 97.40625 142.914063 97.40625 C 126.941406 96.683594 110.320313 99.078125 110.320313 99.078125 L 107.179688 99.65625 C 100.46875 106.058594 88.542969 116.894531 77.449219 130.976563 C 66.691406 144.625 55.578125 159.25 53.910156 181.117188 C 53.808594 182.484375 53.769531 183.816406 53.765625 185.121094 C 53.871094 185.136719 53.984375 185.15625 54.109375 185.191406 C 54.261719 185.238281 55.441406 183.414063 55.550781 183.269531 C 57.03125 181.285156 58.671875 179.386719 60.507813 177.710938 C 62.496094 175.890625 64.367188 175.953125 66.921875 176.195313 C 68.191406 176.3125 69.484375 176.347656 70.761719 176.355469 C 71.191406 176.363281 71.621094 176.347656 72.050781 176.320313 C 73.808594 176.222656 75.695313 176.066406 77.359375 175.453125 C 78.195313 175.144531 78.839844 174.496094 79.753906 174.421875 C 80.816406 174.332031 81.8125 174.804688 82.820313 175.046875 C 84.214844 175.375 85.613281 175.730469 86.976563 176.179688 C 88.421875 176.667969 91.324219 178.375 93.96875 179.679688 C 96.160156 180.757813 98.398438 182.15625 100.660156 183.292969 C 100.816406 183.371094 103.039063 184.347656 103.035156 184.363281 C 102.84375 185.707031 102.136719 186.542969 100.28125 187.5 C 99.195313 188.269531 96.628906 191.726563 94.261719 196.976563 C 93.363281 198.320313 90.484375 201.714844 86.640625 202.550781 C 85.582031 203.003906 84.511719 203.496094 83.53125 204.324219 C 83.542969 204.332031 83.566406 204.347656 83.566406 204.347656 C 83.566406 204.347656 83.425781 204.84375 82.753906 205.074219 C 82.199219 205.261719 81.289063 205.273438 79.789063 204.664063 C 78.121094 204.730469 74.984375 204.597656 73.128906 205.6875 C 71.464844 205.878906 65.183594 206.519531 61.277344 201.398438 C 60.023438 200.195313 56.796875 195.859375 54.449219 193.984375 C 55.621094 201.742188 58.1875 210.015625 61.425781 222.484375 Z M 61.382813 111.800781 C 67.695313 104 94.070313 80.597656 96.484375 77.8125 C 157.027344 16.339844 139.570313 4.269531 139.570313 4.269531 C 135.625 29.566406 106.695313 62.585938 103.355469 65.742188 C 103.355469 66.667969 59.523438 109.941406 56.554688 112.914063 C 39.46875 130.371094 25.355469 151.914063 21.269531 162.871094 C 19.253906 167.402344 18.039063 171.996094 17.4375 176.550781 C 13.03125 169.269531 -3.636719 138.148438 16 112.289063 C 19.15625 108.132813 30.183594 91.183594 71.039063 67.972656 C 78.097656 61.65625 128.984375 36.027344 130.839844 2.972656 C 128.242188 9.472656 115.242188 27.113281 92.328125 44.734375 C 84.226563 50.972656 71.546875 59.289063 63.199219 65.199219 C 50.242188 74.367188 37.511719 83.894531 25.429688 94.191406 C 19.847656 98.945313 14.445313 105.308594 10.039063 111.195313 C 7.886719 114.074219 6.1875 117.269531 4.625 120.496094 C -0.542969 131.160156 -1.421875 142.871094 2.203125 154.207031 C 4.695313 161.988281 13.847656 176.460938 17.207031 178.574219 C 14.597656 206.824219 35.132813 232.839844 37.796875 231.585938 C 4.738281 186.640625 34.453125 143.929688 37.796875 139.097656 C 40.582031 136.128906 58.410156 115.515625 61.382813 111.800781 Z M 71.84375 160.96875 C 70.523438 160.222656 71.125 162.082031 71.125 162.082031 C 71.785156 164.179688 74.0625 163.96875 74.691406 163.878906 C 76.96875 163.097656 76.070313 161.75 75.890625 161.433594 C 72.894531 161.933594 72.085938 161.417969 71.84375 160.96875 Z M 64.320313 154.40625 C 67.648438 163.3125 67.019531 161 67.140625 162.082031 C 62.761719 161.089844 64.320313 154.40625 64.320313 154.40625 "/>
    </g>
  </g>
</svg>